# xmcd CD Database Entry
#
# Track frame offsets:
# 150
# 15943
# 36849
# 57636
# 76409
# 94943
# 110128
# 126693
# 142964
# 162277
# 180058
# 202796
# 222960
# 243043
# 256242
# 268982
# 285045
# 301694
#
# Disc length: 4225 seconds
#
# Revision: 2
# Processed by: cddbd v1.4b41PL1 Copyright (c) Steve Scherf et al.
# Submitted via: tcd 2.0b
#
DISCID=ef107f12
DTITLE=This Ain't CoCo's Party - a frump mix
DYEAR=1900
DGENRE=
TTITLE0=Forget About It (Alison Krauss)
TTITLE1=They're Blind (Kelly Willis)
TTITLE2=I Know Why The River Runs (Julie Miller)
TTITLE3=Basement Apt. (Sarah Harmer)
TTITLE4=Let's Dance (Sara Evans)
TTITLE5=Must Be Love (Stacey Earle)
TTITLE6=Troubled Times (Fountains of Wayne)
TTITLE7=Before I Go (John Hiatt)
TTITLE8=Where Will I Be (Emmy Lou Harris)
TTITLE9=Chocolate Jesus (Tom Waits)
TTITLE10=Strange Lover (Julie Miller)
TTITLE11=It's Not Too Late (T-Bone Burnett)
TTITLE12=Sinner (Neil Finn)
TTITLE13=Weakened State (Sarah Harmer)
TTITLE14=Can't Smile Without You (Sean Beal)
TTITLE15=Cumbia De Los Muertos (Ozomatli)
TTITLE16=Blue Trail of Sorrow (Alison Kraus and Union Station)
TTITLE17=Until The Day I Die (Steve Earle and The Bluegrass Dukes)
EXTD=
EXTT0=
EXTT1=
EXTT2=
EXTT3=
EXTT4=
EXTT5=
EXTT6=
EXTT7=
EXTT8=
EXTT9=
EXTT10=
EXTT11=
EXTT12=
EXTT13=
EXTT14=
EXTT15=
EXTT16=
EXTT17=
PLAYORDER=
